<svg id="ic_empty_grey200_72px" xmlns="http://www.w3.org/2000/svg" width="72" height="72" viewBox="0 0 72 72">
  <defs>
    <style>
      .cls-1 {
        fill: #ff4081;
        opacity: 0;
      }

      .cls-2 {
        fill: #ddd;
      }

      .cls-3 {
        fill: none;
        stroke: #ddd;
        stroke-width: 1.4px;
      }
    </style>
  </defs>
  <rect id="사각형_4291" data-name="사각형 4291" class="cls-1" width="72" height="72"/>
  <g id="그룹_4878" data-name="그룹 4878" transform="translate(0.118 -86.069)">
    <path id="패스_95" data-name="패스 95" class="cls-2" d="M4.036-20.58a1.318,1.318,0,0,1,.829.243.9.9,0,0,1,.314.757L4.922-5.666a.863.863,0,0,1-.257.7.949.949,0,0,1-.629.214.936.936,0,0,1-.643-.214.971.971,0,0,1-.271-.7L2.893-19.58a.818.818,0,0,1,.3-.757A1.381,1.381,0,0,1,4.036-20.58Zm0,18.571a1.54,1.54,0,0,1,1.129.471A1.54,1.54,0,0,1,5.636-.409,1.493,1.493,0,0,1,5.165.706a1.564,1.564,0,0,1-1.129.457A1.551,1.551,0,0,1,2.893.706,1.516,1.516,0,0,1,2.436-.409a1.564,1.564,0,0,1,.457-1.129A1.526,1.526,0,0,1,4.036-2.009Z" transform="translate(31.846 131.779)"/>
  </g>
  <g id="그룹_4879" data-name="그룹 4879" transform="translate(7.4 7.4)">
    <g id="그룹_4873" data-name="그룹 4873">
      <circle id="타원_116" data-name="타원 116" class="cls-3" cx="28" cy="28" r="28" transform="translate(0.6 0.6)"/>
    </g>
  </g>
</svg>
