<svg xmlns="http://www.w3.org/2000/svg" width="72" height="72" viewBox="0 0 72 72">
    <g data-name="그룹 4878">
        <path data-name="패스 95" d="M4.036-20.58a1.318 1.318 0 0 1 .829.243.9.9 0 0 1 .314.757L4.922-5.666a.863.863 0 0 1-.257.7.949.949 0 0 1-.629.214.936.936 0 0 1-.643-.214.971.971 0 0 1-.271-.7L2.893-19.58a.818.818 0 0 1 .3-.757 1.381 1.381 0 0 1 .843-.243zm0 18.571a1.54 1.54 0 0 1 1.129.471 1.54 1.54 0 0 1 .471 1.129A1.493 1.493 0 0 1 5.165.706a1.564 1.564 0 0 1-1.129.457A1.551 1.551 0 0 1 2.893.706a1.516 1.516 0 0 1-.457-1.115 1.564 1.564 0 0 1 .457-1.129 1.526 1.526 0 0 1 1.143-.471z" transform="translate(31.964 45.71)" style="fill:#ff5907"/>
    </g>
    <g data-name="그룹 4879">
        <g data-name="그룹 4873" transform="translate(7.4 7.4)">
            <circle data-name="타원 116" cx="28" cy="28" r="28" transform="translate(.6 .6)" style="fill:none;stroke:#ff5907;stroke-width:1.4px"/>
        </g>
    </g>
</svg>
