<svg xmlns="http://www.w3.org/2000/svg" width="20" height="20" viewBox="0 0 20 20">
    <g data-name="ic_filter_orange_20px">
        <path data-name="선 91" transform="translate(8.709 5)" style="fill:none;stroke:#ff5907;stroke-width:1.2px" d="M0 0h8.77"/>
        <path data-name="선 92" transform="translate(2.521 5)" style="fill:none;stroke:#ff5907;stroke-width:1.2px" d="M0 0h3.095"/>
        <path data-name="선 93" transform="translate(14.383 10)" style="fill:none;stroke:#ff5907;stroke-width:1.2px" d="M0 0h3.096"/>
        <path data-name="선 94" transform="translate(2.521 10)" style="fill:none;stroke:#ff5907;stroke-width:1.2px" d="M0 0h8.769"/>
        <path data-name="선 95" transform="translate(8.711 15)" style="fill:none;stroke:#ff5907;stroke-width:1.2px" d="M0 0h8.769"/>
        <path data-name="선 96" transform="translate(2.521 15)" style="fill:none;stroke:#ff5907;stroke-width:1.2px" d="M0 0h3.095"/>
        <path data-name="패스 304" d="M6.19 2.147A1.548 1.548 0 1 1 4.643.6 1.547 1.547 0 0 1 6.19 2.147z" transform="translate(2.521 2.853)" style="fill:none;stroke:#ff5907;stroke-width:1.2px"/>
        <path data-name="패스 305" d="M6.19 13.053a1.548 1.548 0 1 1-1.547-1.547 1.547 1.547 0 0 1 1.547 1.547z" transform="translate(2.521 1.947)" style="fill:none;stroke:#ff5907;stroke-width:1.2px"/>
        <path data-name="패스 306" d="M11.863 7.6a1.548 1.548 0 1 1-1.547-1.547A1.547 1.547 0 0 1 11.863 7.6z" transform="translate(2.521 2.4)" style="fill:none;stroke:#ff5907;stroke-width:1.2px"/>
    </g>
</svg>
