<svg xmlns="http://www.w3.org/2000/svg" width="24" height="24" viewBox="0 0 24 24">
    <g data-name="ic_heart_grey200_24px" style="fill:none">
        <path d="m1538.955 98.227-.058-.057-.058.057-7.939-7.847a5.025 5.025 0 0 1 0-7.168 5.17 5.17 0 0 1 7.252 0l.745.736.745-.736a5.171 5.171 0 0 1 7.253 0 5.026 5.026 0 0 1 0 7.168z" style="stroke:none" transform="translate(-1526.897 -77.977)"/>
        <path d="m1538.842 96.544.059-.058.054.054 7.096-7.013a3.815 3.815 0 0 0 1.146-2.73c0-1.032-.407-2.001-1.146-2.731a3.931 3.931 0 0 0-2.783-1.139c-1.052 0-2.04.405-2.783 1.139l-1.587 1.569-1.59-1.57a3.93 3.93 0 0 0-2.782-1.138c-1.052 0-2.04.405-2.783 1.14a3.812 3.812 0 0 0-1.146 2.73c0 1.03.407 2 1.147 2.73l7.098 7.017m.113 1.683-.058-.057-.058.057-7.939-7.846a5.024 5.024 0 0 1 0-7.169 5.17 5.17 0 0 1 7.252 0l.745.736.745-.736a5.17 5.17 0 0 1 7.253 0 5.024 5.024 0 0 1 0 7.168l-7.94 7.847z" style="fill:#ddd;stroke:none" transform="translate(-1526.897 -77.977)"/>
    </g>
</svg>
