<svg id="ic_info_circle_16px" xmlns="http://www.w3.org/2000/svg" width="16" height="16" viewBox="0 0 16 16">
  <path id="패스_316" data-name="패스 316" d="M0,0H16V16H0Z" fill="#ff4081" opacity="0"/>
  <g id="ic_info_circle_16px-2" data-name="ic_info_circle_16px" transform="translate(1 1)">
    <circle id="타원_112" data-name="타원 112" cx="6.5" cy="6.5" r="6.5" transform="translate(0.5 0.5)" fill="#fff" stroke="#ccc" stroke-width="1"/>
    <path id="패스_317" data-name="패스 317" d="M1.569-1.809a2.623,2.623,0,0,1,.119-.825,2.116,2.116,0,0,1,.448-.671L2.711-3.9a1.327,1.327,0,0,0,.369-.895,1.021,1.021,0,0,0-.242-.721.911.911,0,0,0-.7-.261,1.058,1.058,0,0,0-.721.237.8.8,0,0,0-.272.637H.33A1.48,1.48,0,0,1,.837-6.049a1.9,1.9,0,0,1,1.3-.437,1.792,1.792,0,0,1,1.294.445,1.615,1.615,0,0,1,.464,1.222,2.208,2.208,0,0,1-.712,1.514L2.7-2.831a1.476,1.476,0,0,0-.321,1.022Zm-.035,1.4a.484.484,0,0,1,.121-.335.455.455,0,0,1,.358-.135.462.462,0,0,1,.36.135A.479.479,0,0,1,2.5-.413a.463.463,0,0,1-.123.331.471.471,0,0,1-.36.131.464.464,0,0,1-.358-.131A.468.468,0,0,1,1.534-.413Z" transform="translate(4.875 10.566)" fill="#999"/>
  </g>
</svg>
