<svg id="ic_naverpay" xmlns="http://www.w3.org/2000/svg" width="56" height="22" viewBox="0 0 56 22">
  <defs>
    <style>
      .cls-1 {
        fill: #333;
      }

      .cls-2 {
        fill: #00c73c;
      }

      .cls-3 {
        fill: #fff;
      }
    </style>
  </defs>
  <g id="ic_naverpay_72px" transform="translate(-13 -16)">
    <path id="패스_65" data-name="패스 65" class="cls-1" d="M225.242,701.032h4.491a5.679,5.679,0,0,1,1.845.27,3.582,3.582,0,0,1,1.3.75,3.009,3.009,0,0,1,.766,1.142,3.987,3.987,0,0,1,.252,1.43v.366a3.82,3.82,0,0,1-.27,1.438,3.377,3.377,0,0,1-.792,1.177,3.773,3.773,0,0,1-1.3.8,5.019,5.019,0,0,1-1.8.3h-2.767v4.9h-1.727Zm1.727,1.5V707.2h2.477q2.721,0,2.721-2.249v-.314a1.9,1.9,0,0,0-.654-1.6,2.978,2.978,0,0,0-1.875-.514Z" transform="translate(-183.943 -680.318)"/>
    <path id="패스_66" data-name="패스 66" class="cls-1" d="M255.412,718.662a3.44,3.44,0,0,1-2.294-.715,2.441,2.441,0,0,1-.846-1.97v-.471a2.6,2.6,0,0,1,.82-1.988,3.8,3.8,0,0,1,2.652-.767h2.425v-.558a1.937,1.937,0,0,0-.462-1.421,2.076,2.076,0,0,0-1.509-.462,3.726,3.726,0,0,0-1.457.262,8.056,8.056,0,0,0-1.282.7l-.837-1.256a8.077,8.077,0,0,1,1.57-.846,5.317,5.317,0,0,1,2.024-.357,5.061,5.061,0,0,1,1.465.2,3.3,3.3,0,0,1,1.143.593,2.758,2.758,0,0,1,.75.959,2.941,2.941,0,0,1,.27,1.282v6.678H258.22v-1.151H258.2a1.827,1.827,0,0,1-.375.479,2.715,2.715,0,0,1-.515.375,3.568,3.568,0,0,1-.829.322A4.4,4.4,0,0,1,255.412,718.662Zm2.756-4.481h-2.39a2.113,2.113,0,0,0-1.422.384,1.356,1.356,0,0,0-.427,1.064v.244a1.112,1.112,0,0,0,.489,1.011,2.116,2.116,0,0,0,1.169.314,3.57,3.57,0,0,0,1.09-.148,2.74,2.74,0,0,0,.846-.445,1.512,1.512,0,0,0,.5-.6,2.227,2.227,0,0,0,.148-.881Z" transform="translate(-201.03 -685.236)"/>
    <path id="패스_67" data-name="패스 67" class="cls-1" d="M281.268,716.9l2.512-7.62h1.779L280.6,722.763l-1.535-.541,1.238-3.26-3.471-9.677h1.831l2.529,7.62Z" transform="translate(-216.559 -685.536)"/>
    <rect id="사각형_496" data-name="사각형 496" class="cls-2" width="22.01" height="22" transform="translate(13 16)"/>
    <path id="패스_68" data-name="패스 68" class="cls-3" d="M170.522,714.5l-3.551-5.213V714.5h-3.7V704.433h3.754l3.551,5.213v-5.213h3.7V714.5Z" transform="translate(-144.767 -682.468)"/>
  </g>
</svg>
