<svg xmlns="http://www.w3.org/2000/svg" width="20" height="20" viewBox="0 0 20 20">
    <g data-name="그룹 4791">
        <g data-name="그룹 4897">
            <path data-name="패스 287" d="M.048 3.783a24.032 24.032 0 0 0 4.638 9.809c1.554 1.815 2.768 1.441 3.277 1.208l1.106-.5a.728.728 0 0 0 .367-.963l-.007-.016L8.4 11.153c-.1-.214-.27-.567-1.753-.479a1.027 1.027 0 0 1-.917-.4 15.834 15.834 0 0 1-2.416-5.11.975.975 0 0 1 .281-.94c1.039-1.041.868-1.4.766-1.612L3.334.436a.762.762 0 0 0-1-.37l-1.1.5C.722.79-.223 1.737.048 3.783" transform="translate(5 2.5)" style="fill:none;stroke:#000"/>
        </g>
    </g>
</svg>
