<svg xmlns="http://www.w3.org/2000/svg" width="12" height="12" viewBox="0 0 12 12">
    <path d="M435.559 2336.244a.473.473 0 0 1 .833 0l1.494 2.906a.463.463 0 0 0 .35.244l3.342.466a.46.46 0 0 1 .375.3.434.434 0 0 1-.118.458l-2.417 2.263a.436.436 0 0 0-.134.395l.57 3.2a.439.439 0 0 1-.185.437.481.481 0 0 1-.489.033l-2.989-1.509a.483.483 0 0 0-.432 0l-2.988 1.508a.48.48 0 0 1-.489-.033.439.439 0 0 1-.185-.437l.571-3.2a.435.435 0 0 0-.134-.395l-2.418-2.263a.435.435 0 0 1-.118-.458.46.46 0 0 1 .375-.3l3.342-.466a.464.464 0 0 0 .35-.244z" transform="translate(-429.975 -2335.496)" style="fill:#ff5907"/>
</svg>
