<svg xmlns="http://www.w3.org/2000/svg" width="24" height="24" viewBox="0 0 24 24">
    <path data-name="ic_star_orange_24px" d="M622.168 2029.49a.947.947 0 0 1 1.666 0l2.988 5.814a.929.929 0 0 0 .7.488l6.683.932a.92.92 0 0 1 .75.607.867.867 0 0 1-.235.914l-4.835 4.526a.872.872 0 0 0-.268.789l1.141 6.391a.876.876 0 0 1-.37.873.963.963 0 0 1-.979.068l-5.978-3.017a.961.961 0 0 0-.865 0l-5.977 3.016a.962.962 0 0 1-.979-.067.876.876 0 0 1-.37-.873l1.141-6.391a.87.87 0 0 0-.268-.789l-4.835-4.526a.867.867 0 0 1-.235-.914.92.92 0 0 1 .75-.607l6.683-.932a.928.928 0 0 0 .7-.488z" transform="translate(-611 -2027.993)" style="fill:#ff5907"/>
</svg>
