<svg xmlns="http://www.w3.org/2000/svg" width="48" height="48" viewBox="0 0 48 48">
    <g data-name="그룹 4894">
        <path data-name="패스 334" d="M48 24a24 24 0 1 0-27.75 23.708v-16.77h-6.094V24h6.094v-5.287c0-6.015 3.583-9.338 9.065-9.338a36.906 36.906 0 0 1 5.372.469v5.906h-3.026c-2.981 0-3.911 1.85-3.911 3.748V24h6.656l-1.064 6.938H27.75v16.77A24.006 24.006 0 0 0 48 24" style="fill:#1877f2"/>
        <path data-name="패스 335" d="m321.186 221.563 1.064-6.937h-6.656v-4.5c0-1.9.93-3.748 3.911-3.748h3.026v-5.906a36.906 36.906 0 0 0-5.372-.469c-5.482 0-9.065 3.323-9.065 9.338v5.287H302v6.938h6.094v16.771a24.254 24.254 0 0 0 7.5 0v-16.774z" transform="translate(-287.844 -190.625)" style="fill:#fff"/>
    </g>
</svg>
