<svg xmlns="http://www.w3.org/2000/svg" width="32" height="32" viewBox="0 0 32 32">
    <path d="M625.891 2029.673a1.247 1.247 0 0 1 2.222 0l3.984 7.959a1.24 1.24 0 0 0 .933.668l8.911 1.276a1.235 1.235 0 0 1 1 .832 1.208 1.208 0 0 1-.313 1.251l-6.447 6.2a1.213 1.213 0 0 0-.357 1.08l1.522 8.749a1.213 1.213 0 0 1-.493 1.195 1.255 1.255 0 0 1-1.3.093l-7.97-4.13a1.252 1.252 0 0 0-1.153 0l-7.969 4.129a1.254 1.254 0 0 1-1.3-.092 1.213 1.213 0 0 1-.493-1.195l1.521-8.749a1.211 1.211 0 0 0-.357-1.08l-6.447-6.2a1.209 1.209 0 0 1-.313-1.251 1.235 1.235 0 0 1 1-.832l8.911-1.276a1.239 1.239 0 0 0 .932-.668z" transform="translate(-611 -2028.052)" style="fill:#ff5907"/>
</svg>
