<svg xmlns="http://www.w3.org/2000/svg" width="18.003" height="18.047" viewBox="0 0 18.003 18.047">
    <path data-name="패스 84" d="M295.044 219.582c-.073.064-.126.1-.173.152-1.118 1.117-2.244 2.225-3.35 3.353a4.18 4.18 0 0 0 1.381 6.863 3.975 3.975 0 0 0 4.438-.838c1.477-1.4 2.9-2.85 4.316-4.309a4.19 4.19 0 0 0 .625-4.931 4.7 4.7 0 0 0-.379-.534.89.89 0 0 0-.984-.32 1.506 1.506 0 0 0-1.124 1.162 2.884 2.884 0 0 0 .165.832 6.273 6.273 0 0 1 .231.992 1.453 1.453 0 0 1-.484 1.129q-2.026 2.022-4.05 4.046a1.625 1.625 0 1 1-2.315-2.28c.659-.658 1.311-1.321 1.978-1.97a.349.349 0 0 0 .1-.472 5.12 5.12 0 0 1-.375-2.875z" transform="translate(-290.278 -212.238)" style="fill:#fff"/>
    <path data-name="패스 85" d="M303.807 222.705c.143-.155.28-.314.428-.463.955-.958 1.927-1.9 2.864-2.874a4.176 4.176 0 0 0-1.472-6.8 3.944 3.944 0 0 0-4.378.816c-1.425 1.336-2.793 2.734-4.15 4.14a4.19 4.19 0 0 0-.446 5.152 1.14 1.14 0 0 0 1.97.144 1.169 1.169 0 0 0 .222-1.481 2.094 2.094 0 0 1-.247-1.241 1.58 1.58 0 0 1 .452-.9c1.288-1.288 2.572-2.58 3.866-3.862a1.623 1.623 0 1 1 2.294 2.295c-.6.614-1.214 1.219-1.824 1.824-.086.085-.128.151-.068.28a5.036 5.036 0 0 1 .43 2.855.661.661 0 0 0 0 .089z" transform="translate(-290.278 -212.238)" style="fill:#fff"/>
</svg>
